<?xml version="1.0" encoding="iso-8859-1"?>
<!-- Generator: Adobe Illustrator 19.0.0, SVG Export Plug-In . SVG Version: 6.00 Build 0)  -->
<svg version="1.1" id="Layer_1" xmlns="http://www.w3.org/2000/svg" xmlns:xlink="http://www.w3.org/1999/xlink" x="0px" y="0px"
	 viewBox="0 0 512 512" style="enable-background:new 0 0 512 512;" xml:space="preserve">
<g>
	<g>
		<path d="M284.454,233.943h-56.907c-17.729,0-32.152,14.424-32.152,32.152v30.651c-0.001,4.406,3.57,7.976,7.975,7.976h105.26
			c4.406,0,7.976-3.57,7.976-7.976v-30.651C316.606,248.366,302.182,233.943,284.454,233.943z M300.652,288.77h-89.307v-22.675
			h0.001c0-8.932,7.268-16.2,16.2-16.2h56.907c8.932,0,16.199,7.268,16.199,16.2V288.77z"/>
	</g>
</g>
<g>
	<g>
		<path d="M255.999,121.053c-4.406,0-7.976,3.57-7.976,7.976v10.135c0,4.406,3.571,7.976,7.976,7.976s7.976-3.57,7.976-7.976
			v-10.135C263.976,124.623,260.404,121.053,255.999,121.053z"/>
	</g>
</g>
<g>
	<g>
		<path d="M255.999,154.384c-4.406,0-7.976,3.57-7.976,7.976v10.134c0,4.406,3.57,7.976,7.976,7.976c4.405,0,7.976-3.57,7.976-7.976
			V162.36C263.976,157.954,260.404,154.384,255.999,154.384z"/>
	</g>
</g>
<g>
	<g>
		<path d="M229.735,123.391c-3.115-3.116-8.164-3.115-11.279-0.001l-7.167,7.166c-3.115,3.115-3.115,8.165,0,11.279
			c1.558,1.558,3.599,2.336,5.641,2.336c2.04,0,4.082-0.779,5.64-2.335l7.166-7.166
			C232.849,131.555,232.849,126.504,229.735,123.391z"/>
	</g>
</g>
<g>
	<g>
		<path d="M206.167,146.959c-3.114-3.116-8.164-3.115-11.279-0.001l-7.167,7.166c-3.115,3.115-3.115,8.165,0,11.279
			c1.557,1.558,3.599,2.336,5.64,2.336c2.041,0,4.083-0.778,5.641-2.335l7.166-7.166
			C209.282,155.123,209.283,150.072,206.167,146.959z"/>
	</g>
</g>
<g>
	<g>
		<path d="M300.712,130.555l-7.167-7.166c-3.115-3.114-8.165-3.115-11.279,0.001c-3.115,3.115-3.115,8.165,0,11.279l7.167,7.166
			c1.556,1.557,3.597,2.335,5.639,2.335c2.041,0,4.083-0.779,5.641-2.336C303.827,138.72,303.827,133.669,300.712,130.555z"/>
	</g>
</g>
<g>
	<g>
		<path d="M324.279,154.124l-7.167-7.166c-3.115-3.114-8.165-3.115-11.279,0.001c-3.115,3.115-3.115,8.165,0,11.279l7.167,7.166
			c1.557,1.556,3.598,2.335,5.64,2.335c2.041,0,4.083-0.779,5.64-2.337C327.393,162.289,327.393,157.238,324.279,154.124z"/>
	</g>
</g>
<g>
	<g>
		<path d="M483.437,148.548h-0.861v-42.284c0-32.529-26.464-58.994-58.994-58.994H88.418c-32.529,0-58.994,26.465-58.994,58.994
			v42.284h-0.861C12.813,148.548,0,161.362,0,177.112v259.056c0,15.75,12.813,28.562,28.563,28.562h55.155
			c12.675,0,22.987-10.312,22.987-22.987c0-5.732-2.109-10.98-5.592-15.011c3.482-4.031,5.592-9.28,5.592-15.011
			c0-5.731-2.109-10.981-5.592-15.011c3.482-4.031,5.592-9.28,5.592-15.011c0-5.731-2.109-10.981-5.592-15.011
			c3.482-4.031,5.592-9.28,5.592-15.011c0-5.731-2.109-10.982-5.592-15.011c3.482-4.031,5.592-9.281,5.592-15.012
			s-2.109-10.981-5.592-15.011c3.482-4.031,5.592-9.28,5.592-15.011c0-5.731-2.109-10.981-5.592-15.011
			c3.482-4.031,5.592-9.28,5.592-15.011c0-5.731-2.109-10.981-5.592-15.011c3.482-4.031,5.592-9.28,5.592-15.011
			s-2.109-10.981-5.592-15.011c3.482-4.031,5.592-9.28,5.592-15.011s-2.109-10.98-5.592-15.011
			c3.482-4.031,5.592-9.281,5.592-15.012c0-12.676-10.313-22.987-22.987-22.987h-6.436v-42.289c0-6.141,4.996-11.137,11.137-11.137
			h335.163c6.141,0,11.137,4.995,11.137,11.137v42.284h-6.436c-12.676,0-22.987,10.312-22.987,22.987
			c0,5.732,2.109,10.982,5.592,15.012c-3.482,4.031-5.592,9.28-5.592,15.011s2.109,10.981,5.592,15.011
			c-3.483,4.031-5.592,9.28-5.592,15.011s2.109,10.981,5.592,15.011c-3.483,4.031-5.592,9.28-5.592,15.011
			c0,5.731,2.109,10.981,5.592,15.011c-3.483,4.031-5.592,9.28-5.592,15.011c0,5.731,2.109,10.981,5.592,15.011
			c-3.483,4.031-5.592,9.28-5.592,15.011s2.109,10.982,5.592,15.012c-3.482,4.03-5.592,9.28-5.592,15.011
			c0,5.731,2.109,10.981,5.592,15.011c-3.483,4.031-5.592,9.28-5.592,15.011c0,5.731,2.109,10.981,5.592,15.011
			c-3.483,4.031-5.592,9.28-5.592,15.011c0,5.731,2.109,10.981,5.592,15.011c-3.483,4.031-5.592,9.28-5.592,15.011
			c0,12.676,10.312,22.987,22.987,22.987h55.155c15.75,0,28.563-12.813,28.563-28.562V177.112
			C512,161.361,499.187,148.548,483.437,148.548z M83.718,164.501c3.879,0,7.035,3.156,7.035,7.035c0,3.88-3.156,7.036-7.035,7.036
			c-4.406,0-7.976,3.57-7.976,7.976s3.57,7.976,7.976,7.976c3.879,0,7.035,3.156,7.035,7.035s-3.156,7.035-7.035,7.035
			c-4.406,0-7.976,3.57-7.976,7.976c0,4.406,3.57,7.976,7.976,7.976c3.879,0,7.035,3.156,7.035,7.035s-3.156,7.035-7.035,7.035
			c-4.406,0-7.976,3.57-7.976,7.976c0,4.406,3.57,7.976,7.976,7.976c3.879,0,7.035,3.156,7.035,7.035s-3.156,7.035-7.035,7.035
			c-4.406,0-7.976,3.57-7.976,7.976s3.57,7.976,7.976,7.976c3.879,0,7.035,3.156,7.035,7.035s-3.156,7.035-7.035,7.035
			c-4.406,0-7.976,3.57-7.976,7.976c0,4.406,3.57,7.976,7.976,7.976c3.879,0,7.035,3.156,7.035,7.035
			c0,3.88-3.156,7.036-7.035,7.036c-4.406,0-7.976,3.57-7.976,7.976c0,4.406,3.57,7.976,7.976,7.976
			c3.879,0,7.035,3.156,7.035,7.035s-3.156,7.035-7.035,7.035c-4.406,0-7.976,3.57-7.976,7.976c0,4.406,3.57,7.976,7.976,7.976
			c3.879,0,7.035,3.156,7.035,7.035s-3.156,7.035-7.035,7.035c-4.406,0-7.976,3.57-7.976,7.976c0,4.406,3.57,7.976,7.976,7.976
			c3.879,0,7.035,3.156,7.035,7.035s-3.156,7.035-7.035,7.035c-4.406,0-7.976,3.57-7.976,7.976s3.57,7.976,7.976,7.976
			c3.879,0,7.035,3.156,7.035,7.035s-3.156,7.035-7.035,7.035H28.563c-6.954,0.004-12.611-5.652-12.611-12.605V177.112
			c0-6.954,5.657-12.611,12.611-12.611h8.838h31.905H83.718z M423.582,79.175H88.418c-14.937,0-27.089,12.152-27.089,27.089v42.284
			H45.377v-42.284c0-23.733,19.309-43.042,43.041-43.042h335.163c23.733,0,43.041,19.308,43.041,43.042v42.284h-15.952v-42.284
			C450.671,91.327,438.519,79.175,423.582,79.175z M496.048,436.168c0,6.953-5.658,12.61-12.611,12.61h-55.155
			c-3.88,0-7.035-3.156-7.035-7.035s3.155-7.035,7.035-7.035c4.405,0,7.976-3.57,7.976-7.976c0-4.406-3.571-7.976-7.976-7.976
			c-3.88,0-7.035-3.156-7.035-7.035s3.155-7.035,7.035-7.035c4.405,0,7.976-3.57,7.976-7.976c0-4.406-3.571-7.976-7.976-7.976
			c-3.88,0-7.035-3.156-7.035-7.035s3.155-7.035,7.035-7.035c4.405,0,7.976-3.57,7.976-7.976s-3.571-7.976-7.976-7.976
			c-3.88,0-7.035-3.156-7.035-7.035s3.155-7.035,7.035-7.035c4.405,0,7.976-3.57,7.976-7.976c0-4.406-3.571-7.976-7.976-7.976
			c-3.88,0-7.035-3.156-7.035-7.036c0-3.879,3.155-7.035,7.035-7.035c4.405,0,7.976-3.57,7.976-7.976
			c0-4.406-3.571-7.976-7.976-7.976c-3.88,0-7.035-3.156-7.035-7.035s3.155-7.035,7.035-7.035c4.405,0,7.976-3.57,7.976-7.976
			s-3.571-7.976-7.976-7.976c-3.88,0-7.035-3.156-7.035-7.035s3.155-7.035,7.035-7.035c4.405,0,7.976-3.57,7.976-7.976
			c0-4.406-3.571-7.976-7.976-7.976c-3.88,0-7.035-3.156-7.035-7.035s3.155-7.035,7.035-7.035c4.405,0,7.976-3.57,7.976-7.976
			c0-4.406-3.571-7.976-7.976-7.976c-3.88,0-7.035-3.156-7.035-7.035s3.155-7.035,7.035-7.035c4.405,0,7.976-3.57,7.976-7.976
			s-3.571-7.976-7.976-7.976c-3.88,0-7.035-3.156-7.035-7.036c0-3.879,3.155-7.035,7.035-7.035h14.412h31.905h8.838v-0.004
			c6.953,0,12.611,5.657,12.611,12.611V436.168z"/>
	</g>
</g>
<g>
	<g>
		<path d="M348.51,326.177v-60.082c0-35.322-28.736-64.057-64.057-64.057h-56.907c-35.322,0-64.057,28.736-64.057,64.057v60.082
			c-16.885,7.612-28.358,22.348-28.358,39.244v33.633c0,4.406,3.571,7.976,7.976,7.976h24.096v28.092
			c0,16.326,13.282,29.607,29.607,29.607c16.326,0,29.606-13.282,29.606-29.607V407.03h59.162v28.092
			c0.001,16.326,13.283,29.607,29.607,29.607c16.326,0,29.607-13.282,29.607-29.607V407.03h24.098c4.406,0,7.976-3.57,7.976-7.976
			v-33.633C376.868,348.525,365.396,333.79,348.51,326.177z M179.44,266.096h0.001c0-26.524,21.58-48.105,48.105-48.105h56.907
			c26.524,0,48.105,21.58,48.105,48.105v55.358c-0.004-0.607-9.253-0.777-10.215-0.777c-0.001,0-132.687,0-132.689,0
			c-3.408,0-6.844,0.256-10.214,0.777V266.096z M210.465,435.122c0,7.529-6.126,13.655-13.654,13.655
			c-7.529,0-13.655-6.126-13.655-13.655V407.03h27.309V435.122z M328.842,435.122c0,7.529-6.126,13.655-13.655,13.655
			c-7.529,0-13.654-6.126-13.654-13.655V407.03h27.309V435.122z M360.917,391.077c0,0-24.076,0-24.098-0.001
			c0,0-43.262,0-43.283,0.001c-0.001,0.001-75.074,0.001-75.095,0c0,0-43.262,0-43.283,0.001h-24.075v-25.657
			c0-11.662,9.342-21.72,22.727-26.242c0.065-0.02,0.13-0.031,0.195-0.052c5.03-1.683,10.351-2.5,15.651-2.5
			c0,0,132.687,0,132.699,0c5.297,0,10.615,0.813,15.641,2.499c0.048,0.016,0.098,0.021,0.147,0.036
			c13.411,4.515,22.775,14.581,22.775,26.258V391.077z"/>
	</g>
</g>
<g>
</g>
<g>
</g>
<g>
</g>
<g>
</g>
<g>
</g>
<g>
</g>
<g>
</g>
<g>
</g>
<g>
</g>
<g>
</g>
<g>
</g>
<g>
</g>
<g>
</g>
<g>
</g>
<g>
</g>
</svg>
