<svg xmlns="http://www.w3.org/2000/svg" xmlns:xlink="http://www.w3.org/1999/xlink" width="528" height="553" version="1.1" viewBox="0 0 528 553"><title>car (1)</title><desc>Created with Sketch.</desc><g id="Page-1" fill="none" fill-rule="evenodd" stroke="none" stroke-width="1"><g id="car-(1)" transform="translate(7.000000, 7.000000)"><path id="Shape" fill="#000" fill-rule="nonzero" d="M413.456,287.499 L384.224,204.675 C382.037,198.477 376.151,194.313 369.579,194.313 L142.417,194.313 C135.844,194.313 129.959,198.477 127.772,204.674 L98.54,287.499 C96.842,292.31 100.532,297.515 105.626,297.515 L406.37,297.515 C408.808,297.515 411.095,296.331 412.503,294.341 C413.912,292.35 414.268,289.799 413.456,287.499 Z M116.247,282.485 L141.944,209.676 C142.012,209.483 142.211,209.342 142.416,209.342 L369.579,209.342 C369.784,209.342 369.983,209.483 370.052,209.677 L395.749,282.485 L116.247,282.485 Z"/><path id="Shape" fill="#000" fill-rule="nonzero" d="M400.28,386.689 C373.592,386.689 352.687,400.553 352.687,418.251 C352.687,435.949 373.592,449.813 400.28,449.813 C426.968,449.813 447.873,435.949 447.873,418.251 C447.873,400.553 426.968,386.689 400.28,386.689 Z M400.28,434.783 C381.642,434.783 367.716,426.055 367.716,418.251 C367.716,410.447 381.641,401.719 400.28,401.719 C418.918,401.719 432.844,410.447 432.844,418.251 C432.844,426.055 418.918,434.783 400.28,434.783 Z"/><path id="Shape" fill="#000" fill-rule="nonzero" d="M111.716,386.689 C85.028,386.689 64.123,400.553 64.123,418.251 C64.123,435.949 85.028,449.813 111.716,449.813 C138.404,449.813 159.309,435.949 159.309,418.251 C159.309,400.553 138.404,386.689 111.716,386.689 Z M111.716,434.783 C93.079,434.783 79.152,426.055 79.152,418.251 C79.152,410.447 93.078,401.719 111.716,401.719 C130.354,401.719 144.28,410.447 144.28,418.251 C144.28,426.055 130.354,434.783 111.716,434.783 Z"/><path id="Shape" fill="#000" fill-rule="nonzero" d="M496.468,274.47 L456.39,274.47 C452.942,274.47 449.936,276.817 449.1,280.162 L443.821,301.277 L406.9,196.671 C401.326,180.878 386.328,170.266 369.579,170.266 L142.417,170.266 C125.668,170.266 110.67,180.878 105.096,196.672 L68.176,301.278 L62.897,280.162 C62.06,276.816 59.054,274.47 55.607,274.47 L15.528,274.47 C11.378,274.47 8.013,277.834 8.013,281.985 L8.013,314.048 C8.013,318.199 11.378,321.563 15.528,321.563 L57.035,321.563 L31.416,357.429 C26.594,364.18 24.045,372.136 24.045,380.433 L24.045,474.361 C24.045,487.376 30.362,498.942 40.089,506.159 C40.086,506.247 40.076,506.334 40.076,506.423 L40.076,530.47 C40.076,539.034 47.043,546 55.606,546 L103.7,546 C112.264,546 119.23,539.033 119.23,530.47 L119.23,513.938 L392.764,513.938 L392.764,530.47 C392.764,539.034 399.731,546 408.294,546 L456.388,546 C464.952,546 471.918,539.033 471.918,530.47 L471.918,506.423 C471.918,506.334 471.908,506.247 471.905,506.159 C481.632,498.942 487.949,487.376 487.949,474.361 L487.949,380.433 C487.949,372.135 485.399,364.179 480.577,357.429 L454.958,321.563 L496.466,321.563 C500.617,321.563 503.981,318.199 503.981,314.048 L503.981,281.985 C503.982,277.833 500.619,274.47 496.468,274.47 Z M23.043,306.532 L23.043,289.499 L49.739,289.499 L53.997,306.532 L23.043,306.532 Z M104.202,530.47 C104.202,530.746 103.978,530.971 103.701,530.971 L55.607,530.971 C55.331,530.971 55.106,530.746 55.106,530.47 L55.106,513.938 L63.623,513.938 L104.202,513.938 L104.202,530.47 Z M456.89,530.47 C456.89,530.746 456.665,530.971 456.389,530.971 L408.295,530.971 C408.019,530.971 407.794,530.746 407.794,530.47 L407.794,513.938 L448.373,513.938 L456.89,513.938 L456.89,530.47 L456.89,530.47 Z M448.374,498.908 L63.622,498.908 C52.707,498.908 43.437,491.746 40.255,481.875 L471.74,481.875 C468.558,491.746 459.289,498.908 448.374,498.908 Z M320.624,417.75 L320.624,434.783 L191.372,434.783 L191.372,417.75 L320.624,417.75 Z M192.553,402.72 C195.735,392.849 205.004,385.687 215.92,385.687 L296.077,385.687 C306.992,385.687 316.262,392.849 319.444,402.72 L192.553,402.72 Z M320.624,449.812 L320.624,466.845 L191.372,466.845 L191.372,449.812 L320.624,449.812 Z M468.35,366.164 C471.341,370.351 472.922,375.285 472.922,380.432 L472.922,466.846 L335.654,466.846 L335.654,410.235 C335.654,388.412 317.899,370.658 296.077,370.658 L215.92,370.658 C194.097,370.658 176.343,388.413 176.343,410.235 L176.343,466.846 L39.074,466.846 L39.074,380.432 C39.074,375.285 40.655,370.351 43.646,366.164 L75.505,321.562 L352.185,321.562 C356.336,321.562 359.7,318.198 359.7,314.047 C359.7,309.896 356.336,306.532 352.185,306.532 L82.259,306.532 L119.268,201.673 C122.726,191.878 132.028,185.295 142.417,185.295 L369.58,185.295 C379.968,185.295 389.27,191.877 392.729,201.673 L429.737,306.532 L384.248,306.532 C380.097,306.532 376.733,309.896 376.733,314.047 C376.733,318.198 380.097,321.562 384.248,321.562 L436.491,321.562 L468.35,366.164 Z M488.953,306.532 L457.998,306.532 L462.256,289.499 L488.953,289.499 L488.953,306.532 Z"/><path id="Shape" fill="#000" fill-rule="nonzero" d="M135.763,362.642 L87.669,362.642 C83.519,362.642 80.154,366.006 80.154,370.157 C80.154,374.308 83.519,377.672 87.669,377.672 L135.763,377.672 C139.913,377.672 143.278,374.308 143.278,370.157 C143.278,366.006 139.913,362.642 135.763,362.642 Z"/><path id="Shape" fill="#000" fill-rule="nonzero" d="M424.327,362.642 L376.233,362.642 C372.082,362.642 368.718,366.006 368.718,370.157 C368.718,374.308 372.082,377.672 376.233,377.672 L424.327,377.672 C428.478,377.672 431.842,374.308 431.842,370.157 C431.842,366.006 428.478,362.642 424.327,362.642 Z"/><circle id="Oval" cx="52" cy="201" r="52" stroke="#000" stroke-width="13"/><circle id="Oval" cx="162" cy="113" r="52" stroke="#000" stroke-width="13"/><circle id="Oval" cx="92" cy="131" r="52" fill="#FFF" stroke="#000" stroke-width="13"/><circle id="Oval" cx="342" cy="113" r="52" stroke="#000" stroke-width="13"/><circle id="Oval" cx="252" cy="113" r="52" fill="#FFF" stroke="#000" stroke-width="13"/><circle id="Oval" cx="207.5" cy="37.5" r="37.5" fill="#FFF" stroke="#000" stroke-width="13"/><circle id="Oval" cx="287.5" cy="37.5" r="37.5" fill="#FFF" stroke="#000" stroke-width="13"/><circle id="Oval" cx="462" cy="203" r="52" stroke="#000" stroke-width="13"/><circle id="Oval" cx="432" cy="143" r="52" fill="#FFF" stroke="#000" stroke-width="13"/></g></g></svg>