<svg xmlns="http://www.w3.org/2000/svg" xmlns:xlink="http://www.w3.org/1999/xlink" id="Capa_1" x="0" y="0" version="1.1" viewBox="0 0 207.91 207.91" xml:space="preserve" style="enable-background:new 0 0 207.91 207.91"><g><g><path style="fill:#010002" d="M202.849,92.857c-5.98-2.233-17.082-3.364-33.022-3.364c-4.18,0-7.508,0.082-9.122,0.14l-0.2,0.004 l-0.122-0.165l-19.269-27.307l-90.47-0.061l-12.97,27.561H0v30.166l25.868,8.704l0.2-1.306 c1.378-9.387,9.563-16.477,19.039-16.477c10.325,0,18.961,8.407,19.236,18.728l0.032,1.066l80.059,0.526l0.007-1.102 c0.039-10.601,8.689-19.222,19.283-19.222c9.394,0,17.372,6.739,18.979,16.008l0.175,1.034l19.097-2.183l0.233-0.648 c0.265-0.759,6.549-18.596,5.604-27.478C207.717,96.543,207.513,94.596,202.849,92.857z M139.432,64.484l0.107,0.157 l17.966,25.016h-54.227l-0.064-0.301L98.168,64.48h41.264V64.484z M40.505,89.124l11.592-24.766h35.52l0.057,0.297l5.043,25.002 H40.255L40.505,89.124z M200.43,123.349l-0.075,0.225l-0.233,0.025l-15.443,1.764l-0.079-0.326 c-2.308-9.709-10.883-16.488-20.868-16.488c-11.227,0-20.636,8.768-21.427,19.956l-0.029,0.351h-0.351l-75.421-0.501l-0.029-0.336 C65.446,117.1,56.066,108.55,45.115,108.55c-9.881,0-18.674,7.004-20.9,16.656l-0.1,0.408l-21.903-7.372V91.855h93.19l-5.54-27.5 h6.034l0.064,0.297l5.522,27.199h60.275l-0.047-0.057l0.737-0.018c1.643-0.043,4.252-0.089,7.38-0.089 c25.907,0,35.474,3.11,35.803,6.02C206.389,104.896,201.844,119.151,200.43,123.349z"/><path style="fill:#010002" d="M45.108,115.668c-8.31,0-15.071,6.753-15.071,15.063s6.76,15.074,15.071,15.074 c8.314,0,15.074-6.764,15.074-15.074S53.422,115.668,45.108,115.668z M45.108,143.609c-7.097,0-12.866-5.78-12.866-12.877 c0-7.097,5.769-12.866,12.866-12.866s12.873,5.769,12.873,12.866C57.981,137.829,52.205,143.609,45.108,143.609z"/><path style="fill:#010002" d="M163.41,115.668c-8.307,0-15.067,6.753-15.067,15.063s6.76,15.074,15.067,15.074 c8.317,0,15.081-6.764,15.081-15.074S171.731,115.668,163.41,115.668z M163.41,143.609c-7.093,0-12.866-5.78-12.866-12.877 c0-7.097,5.769-12.866,12.866-12.866c7.104,0,12.877,5.769,12.877,12.866C176.287,137.829,170.518,143.609,163.41,143.609z"/></g></g></svg>