<?xml version="1.0" encoding="iso-8859-1"?>
<!-- Generator: Adobe Illustrator 18.0.0, SVG Export Plug-In . SVG Version: 6.00 Build 0)  -->
<!DOCTYPE svg PUBLIC "-//W3C//DTD SVG 1.1//EN" "http://www.w3.org/Graphics/SVG/1.1/DTD/svg11.dtd">
<svg version="1.1" id="Capa_1" xmlns="http://www.w3.org/2000/svg" xmlns:xlink="http://www.w3.org/1999/xlink" x="0px" y="0px"
	 viewBox="0 0 450.993 450.993" style="enable-background:new 0 0 450.993 450.993;" xml:space="preserve">
<path style="fill:#191918;" d="M450.993,107.91V49.377H0v58.533h66.463v12.844H29.475c-1.589,0-3.061,0.839-3.871,2.206
	l-9.314,15.718c-0.838,1.414-0.838,3.174,0,4.588l7.955,13.425l-7.955,13.424c-0.838,1.414-0.838,3.174,0,4.588l7.955,13.424
	l-7.955,13.425c-0.838,1.414-0.838,3.174,0,4.588l7.955,13.424l-7.955,13.425c-0.838,1.414-0.838,3.174,0,4.588l7.955,13.424
	l-7.955,13.425c-0.838,1.414-0.838,3.174,0,4.588l7.955,13.424l-7.955,13.425c-0.838,1.414-0.838,3.174,0,4.588l7.955,13.424
	l-7.955,13.425c-0.838,1.414-0.838,3.174,0,4.588l9.314,15.718c0.81,1.367,2.282,2.206,3.871,2.206h36.989v34.606h9v-34.606h36.079
	l0.074,0.387c-3.731,1.946-6.303,5.85-6.303,10.304v8.185c0,6.376,5.187,11.589,11.563,11.621l8.419,0.042v10.836
	c0,5.753,4.68,10.433,10.433,10.433h24.507c5.752,0,10.433-4.68,10.433-10.433v-10.782h109.66v10.782
	c0,5.753,4.68,10.433,10.433,10.433h24.507c5.753,0,10.433-4.68,10.433-10.433v-10.836l8.419-0.042
	c6.376-0.032,11.563-5.245,11.563-11.621V360.5c0-4.443-2.559-8.339-6.307-10.29l0.076-0.401h36.082v34.606h9v-34.606h36.986
	c1.59,0,3.061-0.839,3.871-2.206l9.314-15.718c0.839-1.414,0.839-3.174,0-4.588l-7.955-13.425l7.955-13.424
	c0.839-1.414,0.839-3.174,0-4.588l-7.955-13.425l7.955-13.424c0.839-1.414,0.839-3.174,0-4.588l-7.955-13.425l7.955-13.424
	c0.839-1.414,0.839-3.174,0-4.588l-7.955-13.425l7.955-13.424c0.839-1.414,0.839-3.174,0-4.588l-7.955-13.425l7.955-13.424
	c0.839-1.414,0.839-3.174,0-4.588l-7.955-13.424l7.955-13.425c0.839-1.414,0.839-3.174,0-4.588l-9.314-15.718
	c-0.811-1.367-2.281-2.206-3.871-2.206h-36.986V107.91H450.993z M9,58.377h432.993V98.91H9V58.377z M32.039,340.809l-6.647-11.218
	l7.955-13.425c0.838-1.414,0.838-3.174,0-4.588l-7.955-13.424l7.955-13.425c0.838-1.414,0.838-3.174,0-4.588l-7.955-13.424
	l7.955-13.425c0.838-1.414,0.838-3.174,0-4.588l-7.955-13.424l7.955-13.425c0.838-1.414,0.838-3.174,0-4.588l-7.955-13.424
	l7.955-13.425c0.838-1.414,0.838-3.174,0-4.588l-7.955-13.424l7.955-13.424c0.838-1.414,0.838-3.174,0-4.588l-7.955-13.425
	l6.647-11.218h77.845l6.647,11.218l-7.955,13.425c-0.838,1.414-0.838,3.174,0,4.588l7.955,13.424l-7.955,13.424
	c-0.838,1.414-0.838,3.174,0,4.588l7.955,13.425l-7.955,13.424c-0.838,1.414-0.838,3.174,0,4.588l7.955,13.425l-7.955,13.424
	c-0.838,1.414-0.838,3.174,0,4.588l7.955,13.425l-7.955,13.424c-0.838,1.414-0.838,3.174,0,4.588l6.874,11.601l-6.365,5.072
	c-3.623,2.889-5.334,7.511-4.467,12.061l5.21,27.346H32.039z M325.361,174.702l7.955,13.424l-7.955,13.425
	c-0.839,1.414-0.839,3.174,0,4.588l7.955,13.424l-7.955,13.425c-0.839,1.414-0.839,3.174,0,4.588l4.365,7.365l-9.92,5.878
	l-13.424-7.955c-1.414-0.838-3.174-0.838-4.588,0l-13.424,7.955l-13.425-7.955c-1.414-0.838-3.174-0.838-4.588,0l-13.424,7.955
	l-13.425-7.955c-1.414-0.838-3.174-0.838-4.588,0l-13.424,7.955l-13.424-7.955c-1.414-0.838-3.174-0.838-4.588,0l-13.424,7.955
	l-13.424-7.955c-1.414-0.838-3.174-0.838-4.588,0l-13.424,7.955l-13.424-7.955c-1.414-0.838-3.174-0.838-4.588,0l-13.424,7.955
	l-9.919-5.878l4.364-7.365c0.838-1.414,0.838-3.174,0-4.588l-7.955-13.425l7.955-13.424c0.838-1.414,0.838-3.174,0-4.588
	l-7.955-13.425l7.955-13.424c0.838-1.414,0.838-3.174,0-4.588l-0.931-1.571l6.486-3.843l13.424,7.955
	c1.414,0.838,3.174,0.838,4.588,0l13.424-7.955l13.424,7.955c1.414,0.838,3.174,0.838,4.588,0l13.424-7.955l13.424,7.955
	c1.414,0.838,3.174,0.838,4.588,0l13.424-7.955l13.424,7.955c1.413,0.838,3.173,0.839,4.588,0l13.425-7.955l13.424,7.955
	c1.413,0.838,3.173,0.839,4.588,0l13.425-7.955l13.424,7.955c0.707,0.419,1.501,0.629,2.294,0.629s1.587-0.21,2.294-0.629
	l13.424-7.955l6.486,3.844l-0.931,1.571C324.522,171.528,324.522,173.288,325.361,174.702z M325.361,269.012l7.955,13.424
	l-4.878,8.232l-11.106-8.851l-11.176-28.627l11.356,6.729c0.707,0.419,1.5,0.629,2.294,0.629c0.793,0,1.587-0.21,2.294-0.629
	l9.14-5.416l-5.878,9.92C324.522,265.838,324.522,267.598,325.361,269.012z M160.616,317.121v17.156h-42.87l-3.269-17.156H160.616z
	 M336.517,317.121l-3.269,17.156h-43.846v-17.156H336.517z M280.402,334.277H169.616v-17.156h110.787V334.277z M331.534,343.277
	l-1.444,7.579c-0.309,1.615-1.725,2.787-3.369,2.787H124.273c-1.644,0-3.061-1.172-3.369-2.786l-1.444-7.58H331.534z
	 M115.096,308.121l23.415-18.66h173.971l23.417,18.66H115.096z M117.678,282.436l7.955-13.424c0.838-1.414,0.838-3.174,0-4.588
	l-5.877-9.919l9.138,5.415c1.414,0.838,3.174,0.838,4.588,0l11.356-6.73l-11.175,28.626l-11.107,8.851L117.678,282.436z
	 M297.533,255.849l9.607,24.61H143.854l9.607-24.609l6.869,4.07c1.414,0.838,3.174,0.838,4.588,0l13.424-7.955l13.424,7.955
	c1.414,0.838,3.174,0.838,4.588,0l13.424-7.955l13.424,7.955c1.414,0.838,3.172,0.838,4.588,0l13.424-7.955l13.425,7.955
	c1.414,0.838,3.174,0.838,4.588,0l13.424-7.955l13.425,7.955c1.414,0.838,3.174,0.838,4.588,0L297.533,255.849z M161.668,391.184
	c0,0.79-0.643,1.433-1.433,1.433h-24.507c-0.79,0-1.433-0.643-1.433-1.433v-10.791l1.778,0.009h25.594V391.184z M316.7,391.184
	c0,0.79-0.643,1.433-1.433,1.433h-24.507c-0.79,0-1.433-0.643-1.433-1.433v-10.782h0.909h24.707l1.756-0.009V391.184z
	 M336.682,368.685c0,1.438-1.17,2.614-2.607,2.621l-19.152,0.096H136.097l-19.175-0.096c-1.438-0.007-2.608-1.183-2.608-2.621V360.5
	c0-0.738,0.317-1.406,0.817-1.885c2.292,2.49,5.565,4.029,9.142,4.029h202.448c3.578,0,6.851-1.539,9.143-4.03
	c0.5,0.479,0.818,1.147,0.818,1.886V368.685z M425.604,140.972l-7.955,13.425c-0.839,1.414-0.839,3.174,0,4.588l7.955,13.424
	l-7.955,13.424c-0.839,1.414-0.839,3.174,0,4.588l7.955,13.425l-7.955,13.424c-0.839,1.414-0.839,3.174,0,4.588l7.955,13.425
	l-7.955,13.424c-0.839,1.414-0.839,3.174,0,4.588l7.955,13.425l-7.955,13.424c-0.839,1.414-0.839,3.174,0,4.588l7.955,13.425
	l-7.955,13.424c-0.839,1.414-0.839,3.174,0,4.588l7.955,13.425l-6.648,11.218h-77.789l5.211-27.346
	c0.866-4.551-0.846-9.172-4.47-12.062l-6.364-5.071l6.874-11.601c0.839-1.414,0.839-3.174,0-4.588l-7.955-13.424l7.955-13.425
	c0.839-1.414,0.839-3.174,0-4.588l-7.955-13.424l7.955-13.425c0.839-1.414,0.839-3.174,0-4.588l-7.955-13.424l7.955-13.425
	c0.839-1.414,0.839-3.174,0-4.588l-7.955-13.424l7.955-13.424c0.839-1.414,0.839-3.174,0-4.588l-7.955-13.425l6.648-11.218h77.844
	L425.604,140.972z M375.533,120.754h-36.986c-1.59,0-3.061,0.839-3.871,2.206l-9.314,15.718c-0.839,1.414-0.839,3.174,0,4.588
	l7.955,13.425l-2.436,4.111l-8.781-5.203c-1.414-0.838-3.174-0.838-4.588,0l-13.424,7.955l-13.424-7.955
	c-1.413-0.837-3.173-0.838-4.588,0l-13.425,7.955l-13.424-7.955c-1.413-0.837-3.173-0.838-4.588,0l-13.425,7.955l-13.424-7.955
	c-1.416-0.838-3.174-0.838-4.588,0l-13.424,7.955l-13.424-7.955c-1.414-0.838-3.174-0.838-4.588,0l-13.424,7.955l-13.424-7.955
	c-1.414-0.838-3.174-0.838-4.588,0l-13.424,7.955l-13.424-7.955c-1.414-0.838-3.174-0.838-4.588,0l-8.779,5.203l-2.436-4.111
	l7.955-13.425c0.838-1.414,0.838-3.174,0-4.588l-9.314-15.718c-0.81-1.367-2.282-2.206-3.871-2.206H75.463V107.91h300.07V120.754z"
	/>
<g>
</g>
<g>
</g>
<g>
</g>
<g>
</g>
<g>
</g>
<g>
</g>
<g>
</g>
<g>
</g>
<g>
</g>
<g>
</g>
<g>
</g>
<g>
</g>
<g>
</g>
<g>
</g>
<g>
</g>
</svg>
