<?xml version="1.0" encoding="UTF-8"?>
<svg width="41px" height="42px" viewBox="0 0 41 42" version="1.1" xmlns="http://www.w3.org/2000/svg" xmlns:xlink="http://www.w3.org/1999/xlink">
    <!-- Generator: Sketch 44.1 (41455) - http://www.bohemiancoding.com/sketch -->
    <title>catering</title>
    <desc>Created with Sketch.</desc>
    <defs></defs>
    <g id="Page-1" stroke="none" stroke-width="1" fill="none" fill-rule="evenodd">
        <g id="catering" fill-rule="nonzero" fill="#000000">
            <path d="M35.088457,12.0638438 L22.6269258,12.0638438 C22.2567188,12.0638438 21.9567305,12.3639141 21.9567305,12.7340391 C21.9567305,13.1041641 22.2567188,13.4042344 22.6269258,13.4042344 L35.088375,13.4042344 C35.458582,13.4042344 35.7585703,13.1041641 35.7585703,12.7340391 C35.7585703,12.3639141 35.4586641,12.0638438 35.088457,12.0638438 Z" id="Shape"></path>
            <path d="M40.012793,17.4255703 L38.4395156,17.4255703 L38.4395156,10.7234531 L38.6628867,10.7234531 C39.0330937,10.7234531 39.333082,10.4233828 39.333082,10.0532578 C39.333082,9.68313281 39.0330937,9.3830625 38.6628867,9.3830625 L37.5202734,9.3830625 C37.1938711,5.11202344 33.7743164,1.69246875 29.5032773,1.36606641 L29.5032773,0.670195312 C29.5032773,0.300070312 29.2032891,0 28.833082,0 C28.462875,0 28.1628867,0.300070312 28.1628867,0.670195312 L28.1628867,1.36598438 C23.8918477,1.69238672 20.472293,5.11194141 20.1458906,9.38298047 L19.0033594,9.38298047 C18.6331523,9.38298047 18.3331641,9.68305078 18.3331641,10.0531758 C18.3331641,10.4233008 18.6331523,10.7233711 19.0033594,10.7233711 L19.2267305,10.7233711 L19.2267305,17.4254883 L14.5334766,17.4254883 C14.8267383,17.0355937 15.0372305,16.5800742 15.1381289,16.0850977 L15.4289297,16.0850977 C15.7991367,16.0850977 16.099125,15.7850273 16.099125,15.4149023 C16.099125,15.0447773 15.7991367,14.744707 15.4289297,14.744707 L14.5334766,14.744707 C14.8267383,14.3548125 15.0372305,13.899293 15.1381289,13.4043164 L15.4289297,13.4043164 C15.7991367,13.4043164 16.099125,13.1042461 16.099125,12.7341211 C16.099125,12.3639961 15.7991367,12.0639258 15.4289297,12.0639258 L14.5334766,12.0639258 C14.8267383,11.6740313 15.0372305,11.2185117 15.1381289,10.7235352 L15.4289297,10.7235352 C15.7991367,10.7235352 16.099125,10.4234648 16.099125,10.0533398 C16.099125,9.68321484 15.7991367,9.38314453 15.4289297,9.38314453 L14.5334766,9.38314453 C14.8267383,8.99325 15.0372305,8.53773047 15.1381289,8.04275391 L15.4289297,8.04275391 C15.7991367,8.04275391 16.099125,7.74268359 16.099125,7.37255859 C16.099125,7.00243359 15.7991367,6.70236328 15.4289297,6.70236328 L2.02461328,6.70236328 C1.65440625,6.70236328 1.35441797,7.00243359 1.35441797,7.37255859 C1.35441797,7.74268359 1.65440625,8.04275391 2.02461328,8.04275391 L2.31549609,8.04275391 C2.41639453,8.53773047 2.62672266,8.99333203 2.92014844,9.38314453 L2.02461328,9.38314453 C1.65440625,9.38314453 1.35441797,9.68321484 1.35441797,10.0533398 C1.35441797,10.4234648 1.65440625,10.7235352 2.02461328,10.7235352 L2.31549609,10.7235352 C2.41639453,11.2185117 2.62672266,11.6741133 2.92014844,12.0639258 L2.02461328,12.0639258 C1.65440625,12.0639258 1.35441797,12.3639961 1.35441797,12.7341211 C1.35441797,13.1042461 1.65440625,13.4043164 2.02461328,13.4043164 L2.31549609,13.4043164 C2.41639453,13.899293 2.62672266,14.3548945 2.92014844,14.744707 L2.02461328,14.744707 C1.65440625,14.744707 1.35441797,15.0447773 1.35441797,15.4149023 C1.35441797,15.7850273 1.65440625,16.0850977 2.02461328,16.0850977 L2.31549609,16.0850977 C2.41639453,16.5800742 2.62672266,17.0356758 2.92014844,17.4254883 L0.674707031,17.4254883 C0.3045,17.4254883 0.00451171875,17.7255586 0.00451171875,18.0956836 L0.00451171875,23.4574102 C0.00451171875,23.8275352 0.3045,24.1276055 0.674707031,24.1276055 L33.7553672,24.1276055 C34.1255742,24.1276055 34.4255625,23.8275352 34.4255625,23.4574102 C34.4255625,23.0872852 34.1255742,22.7872148 33.7553672,22.7872148 L1.34490234,22.7872148 L1.34490234,18.7659609 L39.3426797,18.7659609 L39.3426797,22.7872148 L36.4362305,22.7872148 C36.0660234,22.7872148 35.7660352,23.0872852 35.7660352,23.4574102 C35.7660352,23.8275352 36.0660234,24.1276055 36.4362305,24.1276055 L39.1096289,24.1276055 L39.1096289,37.9482305 C38.1004805,37.8504492 37.5195352,37.5299531 36.8643516,37.1684414 C36.0342773,36.710543 35.093543,36.1914492 33.3013242,36.1914492 C31.5091055,36.1914492 30.5682891,36.710543 29.7382969,37.1684414 C28.9503047,37.603207 28.2696914,37.9786641 26.8226602,37.9786641 C25.3756289,37.9786641 24.6949336,37.603207 23.9069414,37.1684414 C23.0768672,36.710543 22.1361328,36.1914492 20.34375,36.1914492 C18.5513672,36.1914492 17.6106328,36.710543 16.7805586,37.1684414 C15.9925664,37.603207 15.3118711,37.9786641 13.8648398,37.9786641 C12.4178906,37.9786641 11.7371953,37.603207 10.9492852,37.1684414 C10.119293,36.710543 9.17855859,36.1914492 7.38633984,36.1914492 C5.59412109,36.1914492 4.65330469,36.710543 3.8233125,37.1684414 C3.63660938,37.2713906 3.45589453,37.3707305 3.26960156,37.4628516 C2.80161328,37.6942617 2.29925391,37.8782578 1.57787109,37.9481484 L1.57787109,26.1382734 C1.57787109,25.7681484 1.27788281,25.4680781 0.907675781,25.4680781 C0.53746875,25.4680781 0.237480469,25.7681484 0.237480469,26.1382734 L0.237480469,38.6489414 C0.237480469,39.0190664 0.53746875,39.3191367 0.907675781,39.3191367 C1.73578125,39.3191367 2.38071094,39.2076562 2.91834375,39.0432656 L2.91834375,41.3297227 C2.91834375,41.6998477 3.21833203,41.999918 3.58853906,41.999918 C3.95874609,41.999918 4.25873438,41.6998477 4.25873438,41.3297227 L4.25873438,38.4583008 C4.33034766,38.4193359 4.40114063,38.3805352 4.47078516,38.3421445 C5.25877734,37.9073789 5.93939063,37.5319219 7.38633984,37.5319219 C8.83328906,37.5319219 9.51390234,37.9074609 10.3017305,38.3420625 C11.1317227,38.800043 12.072457,39.3191367 13.8647578,39.3191367 C15.6571406,39.3191367 16.597875,38.800043 17.4279492,38.3421445 C18.2159414,37.9073789 18.8966367,37.5319219 20.343668,37.5319219 C21.7906992,37.5319219 22.4713945,37.9074609 23.2593867,38.3421445 C24.0894609,38.800125 25.0301953,39.3191367 26.8225781,39.3191367 C28.6148789,39.3191367 29.5556953,38.800043 30.3856875,38.3421445 C31.1736797,37.9073789 31.854293,37.5319219 33.3012422,37.5319219 C34.7481914,37.5319219 35.4288047,37.9074609 36.2166328,38.3420625 C36.2862773,38.3804531 36.3569883,38.4192539 36.4286016,38.4582187 L36.4286016,41.3298047 C36.4286016,41.6999297 36.7285898,42 37.0987969,42 C37.4690039,42 37.7689922,41.6999297 37.7689922,41.3298047 L37.7689922,39.0431836 C38.306625,39.2075742 38.9514727,39.3191367 39.7796602,39.3191367 C40.1498672,39.3191367 40.4498555,39.0190664 40.4498555,38.6489414 L40.4498555,23.9648555 C40.5923438,23.8419727 40.6829063,23.6605195 40.6829063,23.4574922 L40.6829063,18.0957656 C40.6829883,17.7256406 40.383,17.4255703 40.012793,17.4255703 Z M11.854418,17.4255703 L5.59904297,17.4255703 C4.72532813,17.4255703 3.98032031,16.8652148 3.70371094,16.0851797 L13.74975,16.0851797 C13.4730586,16.8651328 12.7280508,17.4255703 11.854418,17.4255703 Z M11.854418,14.744707 L5.59904297,14.744707 C4.72532813,14.744707 3.98032031,14.1843516 3.70371094,13.4043164 L13.74975,13.4043164 C13.4730586,14.1842695 12.7280508,14.744707 11.854418,14.744707 Z M11.854418,12.0638438 L5.59904297,12.0638438 C4.72532813,12.0638438 3.98032031,11.5034883 3.70371094,10.7234531 L13.74975,10.7234531 C13.4730586,11.5034063 12.7280508,12.0638438 11.854418,12.0638438 Z M11.854418,9.38298047 L5.59904297,9.38298047 C4.72532813,9.38298047 3.98032031,8.822625 3.70371094,8.04258984 L13.74975,8.04258984 C13.4730586,8.822625 12.7280508,9.38298047 11.854418,9.38298047 Z M28.833082,2.68086328 C32.6721445,2.68086328 35.8337109,5.63095313 36.1735664,9.38298047 L21.4925977,9.38298047 C21.8325352,5.63095313 24.9940195,2.68086328 28.833082,2.68086328 Z M37.099043,17.4255703 L20.5671211,17.4255703 L20.5671211,10.7234531 L37.099043,10.7234531 L37.099043,17.4255703 Z" id="Shape"></path>
            <circle id="Oval" cx="35.9820234" cy="30.6063516" r="1"></circle>
            <circle id="Oval" cx="33.3011602" cy="33.2872148" r="1"></circle>
        </g>
    </g>
</svg>