<?xml version="1.0" encoding="UTF-8"?>
<svg width="40px" height="40px" viewBox="0 0 40 40" version="1.1" xmlns="http://www.w3.org/2000/svg" xmlns:xlink="http://www.w3.org/1999/xlink">
    <!-- Generator: Sketch 44.1 (41455) - http://www.bohemiancoding.com/sketch -->
    <title>charter-flight</title>
    <desc>Created with Sketch.</desc>
    <defs></defs>
    <g id="Page-1" stroke="none" stroke-width="1" fill="none" fill-rule="evenodd">
        <g id="charter-flight" transform="translate(-1.000000, -1.000000)" fill-rule="nonzero" fill="#000000">
            <path d="M38.675,19.152 C37.49375,19.152 35.91875,19.85025 34.32275,21.0595 L33.04,14.504 C34.657,12.87825 40.9325,6.36475 40.94475,3.20075 C40.9465,2.48675 40.65425,2.044 40.40925,1.79725 C40.16775,1.5575 39.7355,1.2705 39.0355,1.2705 C35.8155,1.2705 28.95725,7.917 27.35775,9.513 L21.763,8.526 C23.33975,6.23525 23.72475,4.20175 22.71325,3.185 C22.456,2.9295 21.9835,2.6215 21.196,2.6215 C19.57025,2.6215 17.1745,3.97075 15.09025,6.055 C14.74025,6.405 14.41475,6.76025 14.1155,7.1155 C12.908,6.75325 9.765,5.89575 8.49975,6.24225 C7.14175,6.61325 4.74775,9.233 4.28225,9.7545 C4.13175,9.92075 4.0705,10.1465 4.11775,10.36525 C4.16325,10.58225 4.3085,10.766 4.5115,10.857 L19.495,17.7345 L10.654,28.4935 C10.5455,28.60375 10.4405,28.714 10.33725,28.82425 C9.05275,28.06125 5.873,26.334 4.42925,26.64025 C3.304,26.866 1.785,28.87675 1.18475,29.73075 C1.06575,29.90225 1.02725,30.11575 1.0815,30.317 C1.134,30.51825 1.27575,30.6845 1.4665,30.77025 L7.672,33.6105 L9.408,35.3465 L12.01725,40.3515 C12.11,40.53 12.27275,40.6595 12.46875,40.70675 C12.52475,40.7225 12.58075,40.7295 12.6385,40.7295 C12.7785,40.7295 12.91675,40.6875 13.03575,40.60525 C13.85125,40.04525 15.76575,38.6225 15.9355,37.53575 C16.191,35.952 14.1435,32.89125 13.16175,31.53325 L24.731,22.4385 L32.7005,38.2445 C32.80025,38.4405 32.984,38.577 33.1975,38.619 C33.4145,38.65575 33.63325,38.5945 33.796,38.4475 C34.25975,38.0275 36.58725,35.86625 36.90225,34.629 C37.261,33.22725 36.30025,30.002 35.85925,28.6475 C36.3685,28.24675 36.8585,27.80925 37.324,27.342 C38.65575,26.012 39.704,24.5455 40.27975,23.21375 C40.943,21.679 40.9115,20.4365 40.19225,19.719 C39.935,19.46175 39.46425,19.152 38.675,19.152 Z M38.99525,22.659 C38.48775,23.835 37.5445,25.14575 36.3335,26.35325 C35.79275,26.8975 35.217,27.3945 34.62025,27.832 C34.3735,28.014 34.27375,28.33425 34.3735,28.623 C34.99475,30.436 35.77175,33.39175 35.5425,34.2825 C35.42875,34.7305 34.503,35.8085 33.52475,36.7745 L25.7005,21.2555 C25.6655,21.18725 25.62175,21.126 25.5675,21.0735 L25.40125,20.909 C25.151,20.657 24.752,20.63775 24.47725,20.8565 L12.1485,30.55325 C12.04175,30.66175 11.92625,30.7545 11.8055,30.835 C11.648,30.94525 11.54125,31.1115 11.50975,31.30225 C11.47825,31.493 11.52725,31.68725 11.64275,31.8395 C13.146,33.81525 14.686,36.47 14.55125,37.31175 C14.483,37.59 13.7515,38.30925 12.88,38.98475 L10.59625,34.60625 C10.563,34.54325 10.521,34.4855 10.472,34.433 L8.56975,32.53075 C8.51025,32.473 8.442,32.424 8.365,32.39075 L2.835,29.8585 C3.60325,28.88025 4.42225,28.07875 4.8475,28.00175 C5.97275,28.00175 8.6695,29.4245 10.1045,30.3205 C10.40025,30.506 10.79575,30.443 11.01975,30.1665 C11.207,29.93375 11.42225,29.70625 11.69175,29.428 L21.14875,17.92 C21.287,17.752 21.3395,17.52975 21.2905,17.318 C21.24325,17.10625 21.098,16.9295 20.90025,16.84025 L5.97275,9.989 C6.9965,8.92675 8.28625,7.75075 8.862,7.59325 C8.93025,7.57575 9.05975,7.55475 9.29075,7.55475 C10.90425,7.55475 14.10325,8.58025 14.1365,8.59075 C14.41475,8.6765 14.714,8.589 14.8995,8.3615 C15.25125,7.92225 15.64325,7.4795 16.07725,7.0455 C18.15275,4.96825 20.1845,4.02325 21.1925,4.02325 C21.364,4.02325 21.59325,4.0495 21.721,4.1755 C22.1375,4.5955 21.763,6.3595 19.97275,8.5785 C19.817,8.76925 19.77675,9.03175 19.8625,9.2645 C19.95,9.4955 20.153,9.66525 20.398,9.70725 L27.47325,10.9585 C27.69025,11.0005 27.93175,10.9235 28.09275,10.7625 C31.17625,7.63525 36.87425,2.674 39.03375,2.674 C39.29975,2.674 39.38725,2.76325 39.417,2.79125 C39.47125,2.84375 39.543,2.94525 39.54125,3.19725 C39.53425,5.33925 34.76375,10.84125 31.75725,13.8075 C31.5595,14 31.528,14.31325 31.62425,14.574 L33.17125,22.477 C33.2185,22.72375 33.39525,22.92325 33.63325,23.0055 C33.8695,23.08425 34.13375,23.0335 34.321,22.869 C35.9205,21.462 37.63025,20.5555 38.675,20.5555 C38.8465,20.5555 39.07575,20.58175 39.2035,20.71125 C39.40825,20.9125 39.4765,21.54775 38.99525,22.659 Z" id="Shape"></path>
        </g>
    </g>
</svg>