<?xml version="1.0" encoding="UTF-8"?>
<svg width="74px" height="42px" viewBox="0 0 74 42" version="1.1" xmlns="http://www.w3.org/2000/svg" xmlns:xlink="http://www.w3.org/1999/xlink">
    <!-- Generator: Sketch 44.1 (41455) - http://www.bohemiancoding.com/sketch -->
    <title>city-car</title>
    <desc>Created with Sketch.</desc>
    <defs></defs>
    <g id="Page-1" stroke="none" stroke-width="1" fill="none" fill-rule="evenodd">
        <g id="city-car" fill-rule="nonzero" fill="#000000">
            <path d="M55.8944188,25.3209964 C51.3371913,25.3209964 47.6296679,29.0285199 47.6296679,33.5857473 C47.6296679,38.1428231 51.3371913,41.8503466 55.8944188,41.8503466 C60.4516462,41.8503466 64.1591697,38.1428231 64.1591697,33.5857473 C64.1591697,29.0285199 60.4514946,25.3209964 55.8944188,25.3209964 Z M55.8944188,39.7276029 C52.5077329,39.7276029 49.7524116,36.9724332 49.7524116,33.5857473 C49.7524116,30.1990614 52.5077329,27.4437401 55.8944188,27.4437401 C59.2811047,27.4437401 62.036426,30.1990614 62.036426,33.5857473 C62.036426,36.9722816 59.2811047,39.7276029 55.8944188,39.7276029 Z" id="Shape"></path>
            <path d="M17.2665487,25.3209964 C12.7093213,25.3209964 9.00179783,29.0285199 9.00179783,33.5857473 C9.00179783,38.1428231 12.7093213,41.8503466 17.2665487,41.8503466 C21.8237762,41.8503466 25.531148,38.1428231 25.531148,33.5857473 C25.531148,29.0285199 21.8237762,25.3209964 17.2665487,25.3209964 Z M17.2665487,39.7276029 C13.8798628,39.7276029 11.1245415,36.9724332 11.1245415,33.5857473 C11.1245415,30.1990614 13.8798628,27.4437401 17.2665487,27.4437401 C20.6532347,27.4437401 23.4084043,30.1990614 23.4084043,33.5857473 C23.4084043,36.9722816 20.6532347,39.7276029 17.2665487,39.7276029 Z" id="Shape"></path>
            <path d="M72.7436968,25.2235018 L70.4103466,25.2235018 L68.7364116,18.4986498 C68.6464982,18.137935 68.3746354,17.8504549 68.0195307,17.7408303 L54.8441155,13.6753213 L44.5627581,0.521285199 C44.3615523,0.263978339 44.053148,0.113566787 43.7263971,0.113566787 L12.188491,0.113566787 C11.708296,0.113566787 11.2879928,0.435920578 11.1633574,0.899740072 L6.22327798,19.2969531 L2.58701805,19.2969531 C2.00083755,19.2969531 1.52564621,19.7721444 1.52564621,20.3583249 L1.52564621,28.899639 L1.06137184,28.899639 C0.475191336,28.899639 0,29.3748303 0,29.9610108 C0,30.5471913 0.475191336,31.0223827 1.06137184,31.0223827 L1.52564621,31.0223827 L1.52564621,33.5857473 C1.52564621,34.1719278 2.00083755,34.6471191 2.58701805,34.6471191 L6.52880144,34.6471191 C7.11498195,34.6471191 7.59017329,34.1719278 7.59017329,33.5857473 C7.59017329,28.2500794 11.9310325,23.9093718 17.2665487,23.9093718 C22.602065,23.9093718 26.9429242,28.250231 26.9429242,33.5857473 L26.9429242,35.2798484 C26.9429242,35.8660289 27.4181155,36.3412202 28.004296,36.3412202 L45.1562166,36.3412202 C45.7423971,36.3412202 46.2175884,35.8660289 46.2175884,35.2798484 L46.2175884,33.5857473 C46.2175884,28.2500794 50.5585993,23.9093718 55.8942671,23.9093718 C61.2297834,23.9093718 65.5706426,28.250231 65.5706426,33.5857473 C65.5706426,34.1719278 66.0458339,34.6471191 66.6320144,34.6471191 L72.7435451,34.6471191 C73.3297256,34.6471191 73.804917,34.1719278 73.804917,33.5857473 L73.804917,26.2850253 C73.8050686,25.6986931 73.3298773,25.2235018 72.7436968,25.2235018 Z M55.8944188,21.7866282 C49.3882094,21.7866282 44.0949964,27.0796895 44.0949964,33.5857473 L44.0949964,34.2184765 L31.4807437,34.2184765 L29.9622238,31.0223827 L41.9996968,31.0223827 C42.5858773,31.0223827 43.0610686,30.5471913 43.0610686,29.9610108 C43.0610686,29.3748303 42.5858773,28.899639 41.9996968,28.899639 L28.0926931,28.899639 C26.2759278,24.7187437 22.1080722,21.7866282 17.2665487,21.7866282 C11.1183249,21.7866282 6.05315523,26.5138267 5.51473646,32.5243755 L3.64838989,32.5243755 L3.64838989,21.4196968 L7.03735018,21.4196968 C7.51754513,21.4196968 7.93784838,21.097343 8.06248375,20.6335235 L13.0025632,2.23631047 L43.2092058,2.23631047 L53.3768448,15.2449386 C53.510426,15.4158195 53.6929819,15.5415162 53.9001011,15.6055018 L66.8213935,19.5926209 L68.2230108,25.2239567 L64.209509,25.2239567 C62.074787,23.101213 59.1355451,21.7866282 55.8944188,21.7866282 Z M71.6823249,32.5243755 L67.646231,32.5243755 C67.4771697,30.6361949 66.8606643,28.8749242 65.9049747,27.3467004 L71.0711264,27.3467004 C71.0741588,27.3467004 71.0770397,27.3462455 71.0800722,27.3462455 L71.6824765,27.3462455 L71.6824765,32.5243755 L71.6823249,32.5243755 Z" id="Shape"></path>
            <path d="M17.2665487,30.3059567 C15.4581227,30.3059567 13.9869097,31.7773213 13.9869097,33.5857473 C13.9869097,35.3941733 15.4581227,36.8653863 17.2665487,36.8653863 C19.0748231,36.8653863 20.5460361,35.3941733 20.5460361,33.5857473 C20.5460361,31.7773213 19.0748231,30.3059567 17.2665487,30.3059567 Z" id="Shape"></path>
            <path d="M55.8944188,30.3059567 C54.0858412,30.3059567 52.6146282,31.7773213 52.6146282,33.5857473 C52.6146282,35.3941733 54.0858412,36.8653863 55.8944188,36.8653863 C57.7028448,36.8653863 59.1740578,35.3941733 59.1740578,33.5857473 C59.1740578,31.7773213 57.7028448,30.3059567 55.8944188,30.3059567 Z" id="Shape"></path>
            <path d="M42.4093863,4.42243321 C42.2084838,4.16072924 41.8973502,4.00743682 41.5674152,4.00743682 L25.9150614,4.00743682 C25.3288809,4.00743682 24.8536895,4.48262816 24.8536895,5.06880866 L24.8536895,14.745639 C24.8536895,15.3318195 25.3288809,15.8070108 25.9150614,15.8070108 L48.9967148,15.8070108 C49.4009458,15.8070108 49.77,15.5774513 49.9486137,15.214917 C50.1273791,14.8523827 50.0846209,14.4197978 49.8385343,14.0992635 L42.4093863,4.42243321 Z M26.9764332,9.1491769 L44.5870181,13.6842671 L26.9764332,13.6842671 L26.9764332,9.1491769 Z" id="Shape"></path>
            <path d="M28.684787,17.8454513 L26.0027004,17.8454513 C25.4165199,17.8454513 24.9413285,18.3206426 24.9413285,18.9068231 C24.9413285,19.4930036 25.4165199,19.9681949 26.0027004,19.9681949 L28.684787,19.9681949 C29.2709675,19.9681949 29.7461588,19.4930036 29.7461588,18.9068231 C29.7461588,18.3206426 29.2709675,17.8454513 28.684787,17.8454513 Z" id="Shape"></path>
            <path d="M21.4428953,4.00743682 L15.3113502,4.00743682 C14.8229675,4.00743682 14.3976606,4.34070758 14.2809097,4.81483755 L11.8955523,14.4916679 C11.8174657,14.8084116 11.8893357,15.1435018 12.0905415,15.4002022 C12.2917473,15.6570542 12.5998484,15.8070108 12.9259928,15.8070108 L21.4428953,15.8070108 C22.0290758,15.8070108 22.5042671,15.3318195 22.5042671,14.745639 L22.5042671,6.57262094 L22.5042671,5.06880866 C22.5042671,4.48262816 22.0290758,4.00743682 21.4428953,4.00743682 Z M14.2807581,13.6842671 L16.1026787,6.29332852 L20.3816751,7.39533574 L20.3816751,13.6842671 L14.2807581,13.6842671 Z" id="Shape"></path>
        </g>
    </g>
</svg>