<?xml version="1.0" encoding="UTF-8"?>
<svg width="27px" height="28px" viewBox="0 0 27 28" version="1.1" xmlns="http://www.w3.org/2000/svg" xmlns:xlink="http://www.w3.org/1999/xlink">
    <!-- Generator: Sketch 44.1 (41455) - http://www.bohemiancoding.com/sketch -->
    <title>hotel</title>
    <desc>Created with Sketch.</desc>
    <defs></defs>
    <g id="Page-1" stroke="none" stroke-width="1" fill="none" fill-rule="evenodd">
        <g id="hotel" fill-rule="nonzero" fill="#000000">
            <path d="M14.60312,2.74897778 L15.5903378,1.37193778 C15.6837956,1.24152 15.8344356,1.16417778 15.9949067,1.16417778 C16.1553778,1.16417778 16.3059556,1.24152 16.3994133,1.37187556 L17.2904356,2.61464 L18.7478044,3.07807111 C18.9006844,3.12672889 19.0207733,3.24607111 19.0703644,3.39864 C19.1199556,3.55120889 19.0929511,3.71833778 18.9978133,3.84757333 L18.0912356,5.07907556 L18.1008178,6.60818667 C18.1018133,6.76865778 18.0254667,6.91973333 17.8956089,7.014 C17.8094933,7.07659556 17.7068267,7.10907556 17.6029778,7.10907556 C17.5503378,7.10907556 17.4974489,7.10073778 17.4461778,7.08375111 L16.5677244,6.79217778 C16.3067644,6.70556444 16.1654578,6.42388444 16.2520711,6.16292444 C16.3386844,5.90202667 16.6203644,5.76053333 16.8813244,5.84727111 L17.1009067,5.92013333 L17.0946222,4.92009778 C17.0939378,4.81282667 17.1279733,4.70823111 17.1915644,4.62186667 L17.7845422,3.8164 L16.83136,3.51331556 C16.7291289,3.48083556 16.6401511,3.41612444 16.57768,3.32901333 L15.9949689,2.51620444 L15.41232,3.32895111 C15.2520978,3.55239111 14.9411733,3.6036 14.7177333,3.44350222 C14.4942311,3.28340444 14.44296,2.97241778 14.60312,2.74897778 Z M20.1491733,11.6486222 C20.1491733,11.92352 19.9262933,12.1464 19.6513956,12.1464 L17.2936089,12.1464 C17.0187111,12.1464 16.7958311,11.92352 16.7958311,11.6486222 L16.7958311,8.42638222 C16.7958311,8.15148444 17.0187111,7.92860444 17.2936089,7.92860444 L19.6513956,7.92860444 C19.9262933,7.92860444 20.1491733,8.15148444 20.1491733,8.42638222 L20.1491733,11.6486222 Z M19.1536178,8.92416 L17.7913867,8.92416 L17.7913867,11.1508444 L19.1536178,11.1508444 L19.1536178,8.92416 Z M20.1491733,13.5980444 L20.1491733,16.8203467 C20.1491733,17.0952444 19.9262933,17.3181244 19.6513956,17.3181244 L17.2936089,17.3181244 C17.0187111,17.3181244 16.7958311,17.0952444 16.7958311,16.8203467 L16.7958311,13.5980444 C16.7958311,13.3231467 17.0187111,13.1002667 17.2936089,13.1002667 L19.6513956,13.1002667 C19.9263556,13.1002667 20.1491733,13.3230844 20.1491733,13.5980444 Z M19.1536178,14.0958222 L17.7913867,14.0958222 L17.7913867,16.3225689 L19.1536178,16.3225689 L19.1536178,14.0958222 Z M16.0596178,5.17794667 L15.15304,6.40944889 L15.1626844,7.93862222 C15.16368,8.09909333 15.0873333,8.25016889 14.9574756,8.34443556 C14.87136,8.40703111 14.7686933,8.43951111 14.6648444,8.43951111 C14.6122044,8.43951111 14.5593156,8.43117333 14.5080444,8.41418667 L13.0567111,7.93252444 L11.60544,8.41418667 C11.4531822,8.46464889 11.2858667,8.43882667 11.1560711,8.34443556 C11.0262756,8.25010667 10.9498667,8.09903111 10.9508622,7.93862222 L10.9604444,6.40944889 L10.0538667,5.17794667 C9.95872889,5.04871111 9.93172444,4.88158222 9.98131556,4.72901333 C10.0309067,4.57638222 10.1509956,4.45710222 10.3038756,4.40844444 L11.7611822,3.94507556 L12.6522044,2.70231111 C12.7456622,2.57189333 12.8963022,2.49455111 13.0567111,2.49455111 C13.21712,2.49455111 13.36776,2.57189333 13.4612178,2.70224889 L14.3523022,3.94501333 L15.8095467,4.40844444 C15.9624889,4.45704 16.0825156,4.57638222 16.1321067,4.72895111 C16.1816978,4.88152 16.1547556,5.04877333 16.0596178,5.17794667 Z M14.8463467,5.14683556 L13.8932889,4.84375111 C13.7910578,4.81127111 13.70208,4.74662222 13.6396089,4.65944889 L13.0568356,3.84664 L12.4740622,4.65944889 C12.4115911,4.74662222 12.3225511,4.81127111 12.2203822,4.84381333 L11.2672622,5.14689778 L11.8601778,5.95236444 C11.9237689,6.03872889 11.9577422,6.14332444 11.95712,6.25053333 L11.9508356,7.25069333 L12.8999733,6.93566222 C12.9508711,6.9188 13.0038222,6.91033778 13.0567733,6.91033778 C13.1097244,6.91033778 13.1626756,6.9188 13.2135733,6.93566222 L14.1627733,7.25069333 L14.1564267,6.25059556 C14.1557422,6.14332444 14.1897778,6.03872889 14.2533689,5.95236444 L14.8463467,5.14683556 Z M12.4232267,1.84488889 L13.0567733,1.20518222 L13.6903822,1.84488889 C13.7876978,1.9432 13.9158756,1.99241778 14.0440533,1.99241778 C14.1706756,1.99241778 14.2972978,1.94444444 14.3943022,1.84831111 C14.5896178,1.65486222 14.5911733,1.33970667 14.3977244,1.14439111 L13.4103822,0.147528889 C13.3169244,0.0531377778 13.1896178,0 13.0567111,0 C12.9238044,0 12.7964978,0.0531377778 12.70304,0.147528889 L11.7158222,1.14439111 C11.5223733,1.33976889 11.5239289,1.65492444 11.7192444,1.84837333 C11.9146222,2.04176 12.2297778,2.04032889 12.4232267,1.84488889 Z M9.31759111,11.6486222 C9.31759111,11.92352 9.09471111,12.1464 8.81981333,12.1464 L6.46202667,12.1464 C6.18712889,12.1464 5.96424889,11.92352 5.96424889,11.6486222 L5.96424889,8.42638222 C5.96424889,8.15148444 6.18712889,7.92860444 6.46202667,7.92860444 L8.81981333,7.92860444 C9.09471111,7.92860444 9.31759111,8.15148444 9.31759111,8.42638222 L9.31759111,11.6486222 Z M8.32203556,8.92416 L6.95980444,8.92416 L6.95980444,11.1508444 L8.32203556,11.1508444 L8.32203556,8.92416 Z M9.31759111,13.5980444 L9.31759111,16.8203467 C9.31759111,17.0952444 9.09471111,17.3181244 8.81981333,17.3181244 L6.46202667,17.3181244 C6.18712889,17.3181244 5.96424889,17.0952444 5.96424889,16.8203467 L5.96424889,13.5980444 C5.96424889,13.3231467 6.18712889,13.1002667 6.46202667,13.1002667 L8.81981333,13.1002667 C9.09477333,13.1002667 9.31759111,13.3230844 9.31759111,13.5980444 Z M8.32203556,14.0958222 L6.95980444,14.0958222 L6.95980444,16.3225689 L8.32203556,16.3225689 L8.32203556,14.0958222 Z M26.1104356,25.5786844 L26.1104356,27.4823733 C26.1104356,27.7572711 25.8875556,27.9801511 25.6126578,27.9801511 L0.500764444,27.9801511 C0.225866667,27.9801511 0.00298666667,27.7572711 0.00298666667,27.4823733 L0.00298666667,25.5786844 C0.00298666667,25.3037867 0.225866667,25.0809067 0.500764444,25.0809067 L1.40354667,25.0809067 L1.40354667,13.8078578 C1.40354667,13.53296 1.62642667,13.31008 1.90132444,13.31008 L3.44250667,13.31008 L3.44250667,5.38757333 C3.44250667,5.11267556 3.66538667,4.88979556 3.94028444,4.88979556 L6.82092444,4.88979556 C7.09582222,4.88979556 7.31870222,5.11267556 7.31870222,5.38757333 C7.31870222,5.66247111 7.09582222,5.88535111 6.82092444,5.88535111 L4.43812444,5.88535111 L4.43812444,25.0809067 L5.96431111,25.0809067 L5.96431111,20.8887467 C5.96431111,20.1234133 6.58696889,19.5008178 7.35230222,19.5008178 L7.43493333,19.5008178 C8.20026667,19.5008178 8.82292444,20.1234133 8.82292444,20.8887467 L8.82292444,25.0809067 L10.2012711,25.0809067 L10.2012711,19.9985333 C10.2012711,19.0694933 10.9570222,18.31368 11.8860622,18.31368 L14.2276089,18.31368 C15.1565867,18.31368 15.9124,19.0694933 15.9124,19.9985333 L15.9124,25.0809067 L17.2906844,25.0809067 L17.2906844,20.8887467 C17.2906844,20.1234133 17.91328,19.5008178 18.6786133,19.5008178 L18.7613067,19.5008178 C19.52664,19.5008178 20.1492356,20.1234133 20.1492356,20.8887467 L20.1492356,25.0809067 L21.6754222,25.0809067 L21.6754222,5.88535111 L19.2926222,5.88535111 C19.0177244,5.88535111 18.7948444,5.66247111 18.7948444,5.38757333 C18.7948444,5.11267556 19.0177244,4.88979556 19.2926222,4.88979556 L22.1732,4.88979556 C22.4480978,4.88979556 22.6709778,5.11267556 22.6709778,5.38757333 L22.6709778,13.31008 L24.2120978,13.31008 C24.4869956,13.31008 24.7098756,13.53296 24.7098756,13.8078578 L24.7098756,25.0809067 L25.61272,25.0809067 C25.8876178,25.0809067 26.1104356,25.3037244 26.1104356,25.5786844 Z M22.6709156,25.0809067 L23.7142578,25.0809067 L23.7142578,14.3056356 L22.6709156,14.3056356 L22.6709156,25.0809067 L22.6709156,25.0809067 Z M18.2861778,25.0809067 L19.1536178,25.0809067 L19.1536178,20.8887467 C19.1536178,20.6724 18.9775911,20.4963733 18.7612444,20.4963733 L18.6785511,20.4963733 C18.4622044,20.4963733 18.2861778,20.6724 18.2861778,20.8887467 L18.2861778,25.0809067 Z M11.1968267,25.0809067 L14.9167822,25.0809067 L14.9167822,19.9985333 C14.9167822,19.61848 14.6076,19.3092356 14.2275467,19.3092356 L11.886,19.3092356 C11.5060089,19.3092356 11.1967644,19.6184178 11.1967644,19.9985333 L11.1967644,25.0809067 L11.1968267,25.0809067 Z M6.95980444,25.0809067 L7.82730667,25.0809067 L7.82730667,20.8887467 C7.82730667,20.6724 7.65121778,20.4963733 7.43487111,20.4963733 L7.35224,20.4963733 C7.13583111,20.4963733 6.95980444,20.6724 6.95980444,20.8887467 L6.95980444,25.0809067 Z M2.39916444,25.0809067 L3.44256889,25.0809067 L3.44256889,14.3056356 L2.39916444,14.3056356 L2.39916444,25.0809067 Z M25.11488,26.0764622 L0.998542222,26.0764622 L0.998542222,26.9845956 L25.11488,26.9845956 L25.11488,26.0764622 Z M14.7334133,13.5980444 L14.7334133,16.8203467 C14.7334133,17.0952444 14.5105333,17.3181244 14.2356356,17.3181244 L11.8777867,17.3181244 C11.6028889,17.3181244 11.3800089,17.0952444 11.3800089,16.8203467 L11.3800089,13.5980444 C11.3800089,13.3231467 11.6028889,13.1002667 11.8777867,13.1002667 L14.2356356,13.1002667 C14.5105956,13.1002667 14.7334133,13.3230844 14.7334133,13.5980444 Z M13.7378578,14.0958222 L12.3755644,14.0958222 L12.3755644,16.3225689 L13.7378578,16.3225689 L13.7378578,14.0958222 Z M14.7334133,9.86601778 C14.7334133,9.59112 14.5105333,9.36824 14.2356356,9.36824 C13.9607378,9.36824 13.7378578,9.59112 13.7378578,9.86601778 L13.7378578,11.1509689 L12.3755644,11.1509689 L12.3755644,9.86601778 C12.3755644,9.59112 12.1526844,9.36824 11.8777867,9.36824 C11.6028889,9.36824 11.3800089,9.59112 11.3800089,9.86601778 L11.3800089,11.6487467 C11.3800089,11.9236444 11.6028889,12.1465244 11.8777867,12.1465244 L14.2356356,12.1465244 C14.5105333,12.1465244 14.7334133,11.9236444 14.7334133,11.6487467 L14.7334133,9.86601778 Z M8.02231111,5.07913778 L8.01266667,6.60824889 C8.01167111,6.76865778 8.08801778,6.91979556 8.21781333,7.01406222 C8.30399111,7.07665778 8.40665778,7.10913778 8.51044444,7.10913778 C8.56308444,7.10913778 8.61597333,7.1008 8.66718222,7.08381333 L9.54576,6.79224 C9.80665778,6.70562667 9.94802667,6.42394667 9.86141333,6.16304889 C9.7748,5.90208889 9.49293333,5.76084444 9.23222222,5.84739556 L9.01257778,5.92025778 L9.01892444,4.92022222 C9.01960889,4.81295111 8.98557333,4.70835556 8.92198222,4.62199111 L8.32900444,3.81652444 L9.28218667,3.51344 C9.38441778,3.48096 9.47339556,3.41624889 9.53592889,3.32907556 L10.11864,2.51626667 L10.7014133,3.32907556 C10.8615733,3.55245333 11.1724978,3.60372444 11.396,3.44356444 C11.61944,3.28340444 11.6707111,2.97241778 11.5104889,2.74897778 L10.5231467,1.37193778 C10.4296889,1.24152 10.2790489,1.16424 10.11864,1.16424 C9.95823111,1.16424 9.80752889,1.24158222 9.71407111,1.372 L8.82311111,2.61476444 L7.36574222,3.07819556 C7.2128,3.12685333 7.09277333,3.24619556 7.04318222,3.39876444 C6.99359111,3.55133333 7.02059556,3.71846222 7.11573333,3.84769778 L8.02231111,5.07913778 Z" id="XMLID_265_"></path>
        </g>
    </g>
</svg>