<?xml version="1.0" encoding="UTF-8"?>
<svg width="42px" height="42px" viewBox="0 0 42 42" version="1.1" xmlns="http://www.w3.org/2000/svg" xmlns:xlink="http://www.w3.org/1999/xlink">
    <!-- Generator: Sketch 44.1 (41455) - http://www.bohemiancoding.com/sketch -->
    <title>makeup</title>
    <desc>Created with Sketch.</desc>
    <defs></defs>
    <g id="Page-1" stroke="none" stroke-width="1" fill="none" fill-rule="evenodd">
        <g id="makeup" fill-rule="nonzero" fill="#000000">
            <path d="M41.751515,37.4455236 L28.6189442,23.5186481 C28.3628884,23.2471803 27.9350472,23.2346524 27.6633991,23.4905279 C27.3917511,23.7466738 27.3792232,24.174515 27.6353691,24.4461631 L40.3175665,37.8955365 L37.9076137,40.3054893 L25.4209056,28.5309785 C25.1491674,28.2748326 24.7214163,28.2875408 24.4653605,28.5590987 C24.2092146,28.8307468 24.2217425,29.258588 24.4933906,29.5147339 L37.457691,41.7395279 C37.5881073,41.8624635 37.7548455,41.9236609 37.9214034,41.9236609 C38.0945408,41.9236609 38.2676781,41.8575064 38.3994464,41.7257382 L41.7377253,38.3874592 C41.9962146,38.1287897 42.0023433,37.7115837 41.751515,37.4455236 Z" id="Shape"></path>
            <path d="M0.34393133,10.4633176 L10.1601245,15.9990258 L12.0968112,17.8252146 C12.2274077,17.9483305 12.3940558,18.0093476 12.5604335,18.0093476 C12.7401502,18.0093476 12.9193262,17.9381459 13.0523562,17.7971845 C13.3085021,17.5255365 13.2959742,17.0976953 13.0243262,16.8415494 L11.4650987,15.371279 L15.3834464,11.4529313 L17.761133,13.9744635 C18.017279,14.2460215 18.44503,14.2585494 18.7166781,14.0025837 C18.9883262,13.7464378 19.0008541,13.3185966 18.7447082,13.0469485 L15.9471116,10.0801803 L10.5228026,0.360244635 C10.3876996,0.118158798 10.1179442,-0.0170343348 9.84359227,0.0196480687 C7.96936481,0.268223176 5.6502618,1.607897 3.64012017,3.60343777 C1.63115021,5.59771674 0.272909871,7.90645494 0.00675965665,9.77933047 C-0.0324463519,10.0550343 0.10139485,10.3265923 0.34393133,10.4633176 Z M4.59260086,4.5629485 C6.23627897,2.93125751 8.0633691,1.79320172 9.57780258,1.44133906 L14.5583176,10.3660687 L10.3630043,14.5612918 L1.43124464,9.52444635 C1.7975279,8.01172532 2.95009442,6.19337768 4.59260086,4.5629485 Z" id="Shape"></path>
            <path d="M24.341794,25.8135966 L23.8851116,25.3569142 L31.8654721,17.3765536 C32.0936781,17.1483476 32.1241416,16.7978369 31.9578541,16.5363734 L39.6540386,8.84018884 C41.6839185,6.81039914 42.2962532,3.11692275 41.7155536,0.718866953 C41.6559785,0.472815451 41.463824,0.280660944 41.2176824,0.221085837 C38.8197167,-0.359613734 35.1262403,0.25272103 33.0964506,2.28251073 L25.4000858,9.97887554 C25.2926524,9.91064807 25.1673734,9.87315451 25.0380386,9.87315451 C24.8587725,9.87315451 24.6868069,9.94435622 24.5600858,10.0710773 L16.5797253,18.0514378 L16.1229528,17.5946652 C15.9962318,17.4679442 15.8242661,17.3967425 15.645,17.3967425 C15.4657339,17.3967425 15.2937682,17.4679442 15.1670472,17.5946652 L0.210901288,32.550721 C0.0840901288,32.6775322 0.012888412,32.8494077 0.012888412,33.0287639 C0.012888412,33.2081202 0.0840901288,33.3799056 0.210901288,33.5068069 L8.42983262,41.7256481 C8.56178112,41.8575966 8.73482833,41.9235708 8.90778541,41.9235708 C9.08074249,41.9235708 9.2537897,41.8575966 9.3857382,41.7256481 L24.341794,26.7696824 C24.6057811,26.5056052 24.6057811,26.0776738 24.341794,25.8135966 Z M34.0523562,7.884103 C32.7715365,6.60328326 32.7715365,4.51923605 34.0523562,3.23841631 C35.5633648,1.7273176 38.4766867,1.13084549 40.4843948,1.45215451 C40.8055236,3.45950215 40.2093219,6.37237339 38.6987639,7.88356223 C38.6985837,7.88374249 38.6983133,7.88392275 38.698133,7.884103 L38.6963305,7.88590558 C38.0463219,8.53492275 37.1816266,8.87660086 36.2639356,8.84442489 C35.889721,8.83054506 35.5782361,9.12418455 35.565618,9.4973176 C35.553,9.87045064 35.8453777,10.1830172 36.2185107,10.1956352 C36.2699742,10.1973476 36.3213476,10.1981588 36.3726309,10.1981588 C36.3765064,10.1981588 36.380382,10.1978884 36.3843476,10.1978884 L31.0136652,15.5685708 L26.3679785,10.9228841 L31.7406438,5.55012876 C31.7377597,6.74127039 32.189485,7.9333133 33.0963605,8.84018884 C33.3603476,9.10408584 33.7883691,9.10408584 34.0522661,8.84018884 C34.3163433,8.57611159 34.3163433,8.14818026 34.0523562,7.884103 Z M25.0379485,11.5049356 L30.4315236,16.8985107 L22.9291159,24.4009185 L17.5356309,19.0074335 L25.0379485,11.5049356 Z M8.90778541,40.2916996 L1.64484979,33.0287639 L15.6449099,19.0286137 L16.1013219,19.4849356 C16.1015021,19.4850258 16.1015923,19.485206 16.1016824,19.4853863 C16.1017725,19.4855665 16.1019528,19.4856567 16.102133,19.4857468 L22.4511631,25.8347768 L22.4511631,25.8347768 L22.4511631,25.8347768 L22.9078455,26.2914592 L8.90778541,40.2916996 Z" id="Shape"></path>
        </g>
    </g>
</svg>