<?xml version="1.0" encoding="UTF-8"?>
<svg width="28px" height="28px" viewBox="0 0 28 28" version="1.1" xmlns="http://www.w3.org/2000/svg" xmlns:xlink="http://www.w3.org/1999/xlink">
    <!-- Generator: Sketch 44.1 (41455) - http://www.bohemiancoding.com/sketch -->
    <title>trumpet</title>
    <desc>Created with Sketch.</desc>
    <defs></defs>
    <g id="Page-1" stroke="none" stroke-width="1" fill="none" fill-rule="evenodd">
        <g id="trumpet" fill-rule="nonzero" fill="#000000">
            <path d="M27.8691745,8.49746383 L19.5025957,0.130825532 C19.3829106,0.0112 19.2057362,-0.0306212766 19.045183,0.0229361702 C18.8845702,0.076493617 18.7681021,0.216314894 18.7442128,0.383957447 L17.6426809,8.13715745 L13.198366,12.5814723 L12.2533362,11.6364426 L12.6264511,11.2633277 C12.8009447,11.088834 12.8009447,10.8059149 12.6263915,10.6314809 C12.4519574,10.4570468 12.1690383,10.4569872 11.9945447,10.6315404 L11.3064,11.3197447 C11.3046723,11.3214723 10.6164681,12.0096766 10.6164681,12.0096766 C10.4419745,12.1841702 10.4419745,12.4670894 10.6165277,12.6415234 C10.7037447,12.7287404 10.8181277,12.7723489 10.9324511,12.7723489 C11.0467745,12.7723489 11.1611574,12.7287404 11.248434,12.6414638 L11.6214894,12.2684085 L12.5664596,13.2133787 L10.2864851,15.4933532 L9.34151489,14.548383 L9.71462979,14.1752681 C9.8891234,14.0007149 9.8891234,13.7178553 9.71462979,13.5433617 C9.5400766,13.3689277 9.25721702,13.3689277 9.0827234,13.5433617 L7.70458723,14.9214979 C7.53009362,15.0960511 7.53009362,15.3789106 7.70458723,15.5534043 C7.79186383,15.6406213 7.90624681,15.6842298 8.02057021,15.6842298 C8.13489362,15.6842298 8.2492766,15.6406213 8.33655319,15.5534043 L8.70966809,15.1802894 L9.6546383,16.1252596 L7.37466383,18.405234 L6.42969362,17.4602638 L6.80280851,17.0871489 C6.97730213,16.9125957 6.97730213,16.6297362 6.80280851,16.4552426 C6.62825532,16.2808085 6.34539574,16.2808085 6.17090213,16.4552426 L4.79276596,17.8333787 C4.61827234,18.0079319 4.61827234,18.2907915 4.79276596,18.4652851 C4.88004255,18.5525021 4.99442553,18.5961106 5.10874894,18.5961106 C5.22307234,18.5961106 5.33745532,18.5525021 5.42473191,18.4652851 L5.79784681,18.0921702 L6.74281702,19.0371404 L2.66071489,23.119183 C2.65827234,23.1216255 0.869131915,24.910766 0.869131915,24.910766 L0.762970213,24.8046043 C0.588417021,24.6301702 0.305557447,24.6301702 0.13106383,24.8046043 C-0.0434297872,24.9791574 -0.0434297872,25.262017 0.13106383,25.4365106 L0.552612766,25.8580596 C0.553744681,25.8591915 2.14092766,27.4463745 2.14092766,27.4463745 C2.14205957,27.4475064 2.56360851,27.8690553 2.56360851,27.8690553 C2.65088511,27.9562723 2.76526809,27.9998809 2.87959149,27.9998809 C2.99391489,27.9998809 3.10829787,27.9562723 3.19557447,27.8690553 C3.37006809,27.6945021 3.37006809,27.4116426 3.19557447,27.2371489 L3.08941277,27.1309872 L6.00284255,24.2175574 C6.26228936,24.8675745 6.65196596,25.4613532 7.15274894,25.9620766 C8.13233191,26.9417191 9.43480851,27.4812255 10.8202128,27.4812255 C12.205617,27.4812255 13.508034,26.9417191 14.4877362,25.9621362 L20.1237191,20.3261532 C21.1033617,19.3465702 21.6428681,18.0440936 21.6428681,16.6586894 C21.6428681,15.2732851 21.1033617,13.9708681 20.1237787,12.991166 C19.4849617,12.3524085 18.7194298,11.915966 17.9074894,11.680766 C17.1166383,11.4517021 16.2817617,11.4136936 15.4763745,11.5674553 L18.3803319,8.66349787 C18.4487234,8.59504681 18.493166,8.5061617 18.5067489,8.41036596 L19.5034298,1.39511489 L26.604766,8.49686809 L19.5895149,9.49354894 C19.4937191,9.50719149 19.404834,9.55157447 19.336383,9.61996596 L18.6318553,10.3244936 C18.4574213,10.4989872 18.4574213,10.7817277 18.6317362,10.9562809 C18.8064085,11.130834 19.0892681,11.130834 19.2638213,10.9564596 L19.8629021,10.3573191 L27.6161021,9.25578723 C27.7836851,9.23195745 27.9235064,9.11548936 27.9771234,8.95481702 C28.0306213,8.79426383 27.9888596,8.61720851 27.8691745,8.49746383 Z M10.8199149,26.5877277 C9.67322553,26.5877277 8.59516596,26.141217 7.78435745,25.3303489 C7.27624681,24.8222979 6.90628936,24.1989702 6.70415319,23.5161277 L7.88134468,22.3389362 C7.89230638,23.0771234 8.1788,23.8119745 8.74082553,24.374 C9.8872766,25.5202723 11.7526128,25.5203319 12.899183,24.3739404 L18.535166,18.7379574 C19.6815574,17.5915064 19.6815574,15.7260511 18.5352255,14.5796596 C17.388834,13.4332681 15.5233191,13.4331489 14.3768085,14.5796596 L8.74154043,20.2149872 C8.7390383,20.2174894 4.5635234,24.3929447 4.5635234,24.3929447 L3.60711489,23.4365362 L13.4204,13.6232511 C15.0942043,11.9493277 17.8177702,11.9493277 19.4915149,13.6232511 C20.3023234,14.4340596 20.7488936,15.5121191 20.7488936,16.6588085 C20.7488936,17.8054979 20.302383,18.8835574 19.4915149,19.6943064 L13.8555319,25.3302894 C13.0446638,26.1411574 11.9666043,26.5877277 10.8199149,26.5877277 Z M1.50085957,25.5427915 L2.97520851,24.068383 L3.93161702,25.0247915 L2.45726809,26.4991404 L1.50085957,25.5427915 Z M9.37273191,20.8475489 L15.0087149,15.211566 C15.8066553,14.4135064 17.1052,14.4134468 17.9032596,15.211566 C18.7013191,16.009566 18.7012596,17.3079915 17.9032,18.1060511 L12.2672766,23.742034 C11.4691574,24.5400936 10.1706723,24.5401532 9.37273191,23.7420936 C8.57467234,22.944034 8.57467234,21.6455489 9.37273191,20.8475489 Z" id="Shape"></path>
        </g>
    </g>
</svg>